Coordinates
version=1
nRows=28
nColumns=33
inDegrees=yes

Units are S.I. units (second, meters, Newtons, ...)
Angles are in degrees.

endheader
time	ground_thorax_rot_x	ground_thorax_rot_y	ground_thorax_rot_z	ground_thorax_tx	ground_thorax_ty	ground_thorax_tz	clav_prot_r	clav_elev_r	scapula_abduction_r	scapula_elevation_r	scapula_upward_rot_r	scapula_winging_r	shoulder_elv_r	plane_of_elev_r	axial_rot_r	elbow_flexion_r	pro_sup_r	wrist_flex_r	wrist_dev_r	clav_prot_l	clav_elev_l	scapula_abduction_l	scapula_elevation_l	scapula_upward_rot_l	scapula_winging_l	shoulder_elv_l	plane_of_elev_l	axial_rot_l	elbow_flexion_l	pro_sup_l	wrist_flex_l	wrist_dev_l	
8.6200	-39.323248	-14.583602	19.512083	-202.760757	825.426733	5.549871	7.631813	-39.603740	33.548150	-45.000000	36.607701	2869.373758	-1577.451464	-90.000000	-76.729939	1802.004908	226.340039	18.256999	13.517922	15.333918	38.286924	-37.781385	-45.000000	-45.000000	-2072.636233	71.957656	25.120135	-13.398389	1089.467803	12.894828	9.020441	-21.688334	
8.6300	-39.230146	-14.796394	19.788348	-199.599549	824.928963	5.725691	7.453052	-39.518168	33.774995	-45.000000	37.139957	2869.228552	-1577.696995	-90.000000	-76.462453	1801.841818	226.801860	18.179254	13.500429	15.430526	38.319864	-37.930798	-45.000000	-45.000000	-2072.730912	71.922487	25.135134	-13.447364	1089.514105	12.230943	9.243320	-21.550328	
8.6400	-39.131599	-15.043112	20.095718	-196.265761	824.325712	5.913873	7.284814	-39.431741	34.007186	-45.000000	37.659268	2869.075393	-1577.940662	-90.000000	-76.196270	1801.684466	227.286751	18.088365	13.474534	15.523045	38.351379	-38.080704	-45.000000	-45.000000	-2072.839717	71.881441	25.148207	-13.483613	1089.556884	11.622161	9.463120	-21.400805	
8.6500	-39.027350	-15.324563	20.435972	-192.763794	823.607631	6.111715	7.126023	-39.344914	34.240095	-45.000000	38.160905	2868.915432	-1578.181344	-90.000000	-75.932493	1801.535776	227.799415	17.983554	13.438723	15.608042	38.378902	-38.224786	-45.000000	-45.000000	-2072.966485	71.835467	25.163260	-13.499571	1089.592559	11.088584	9.677493	-21.241174	
8.6600	-38.918359	-15.636615	20.807020	-189.101138	822.767344	6.316071	6.967152	-39.254939	34.477121	-45.000000	38.640978	2868.745254	-1578.414376	-90.000000	-75.675697	1801.393402	228.346225	17.866173	13.391324	15.691536	38.404974	-38.366621	-45.000000	-45.000000	-2073.112891	71.781745	25.178589	-13.487463	1089.618123	10.651034	9.886212	-21.074594	
8.6700	-38.802301	-15.985765	21.215794	-185.288257	821.799863	6.523427	6.833299	-39.169551	34.722473	-45.000000	39.079236	2868.563453	-1578.640072	-90.000000	-75.425643	1801.256459	228.930713	17.742298	13.335020	15.766466	38.427716	-38.496715	-45.000000	-45.000000	-2073.273860	71.718428	25.203069	-13.448380	1089.626901	10.337667	10.089824	-20.904711	
8.6800	-38.678887	-16.376255	21.666633	-181.338094	820.702966	6.729963	6.740196	-39.092178	34.984122	-45.000000	39.462219	2868.364711	-1578.858012	-90.000000	-75.182917	1801.122491	229.554455	17.620025	13.273869	15.838449	38.449446	-38.615758	-45.000000	-45.000000	-2073.439262	71.638422	25.237763	-13.385986	1089.614856	10.173288	10.289998	-20.736922	
8.6900	-38.544299	-16.809783	22.163156	-177.265578	819.477437	6.931627	6.703595	-39.028647	35.263973	-45.000000	39.779146	2868.149452	-1579.068255	-90.000000	-74.947691	1800.990904	230.217750	17.504425	13.210668	15.906995	38.470010	-38.717076	-45.000000	-45.000000	-2073.604839	71.537101	25.287337	-13.308915	1089.579384	10.176414	10.488186	-20.576256	
8.7000	-38.397991	-17.280696	22.703366	-173.086929	818.127233	7.124272	6.718254	-38.976623	35.559040	-45.000000	40.030081	2867.917641	-1579.267996	-90.000000	-74.722970	1800.863891	230.922050	17.393177	13.143762	15.971592	38.489867	-38.800062	-45.000000	-45.000000	-2073.771448	71.415224	25.348563	-13.216123	1089.521220	10.353605	10.684031	-20.426873	
8.7100	-38.237982	-17.779414	23.280748	-168.818770	816.659421	7.303855	6.759902	-38.930064	35.856346	-45.000000	40.234781	2867.674059	-1579.451070	-90.000000	-74.514904	1800.745364	231.673328	17.278340	13.067813	16.029952	38.510095	-38.865354	-45.000000	-45.000000	-2073.948217	71.277804	25.410947	-13.105296	1089.444606	10.699900	10.872547	-20.291562	
8.7200	-38.064728	-18.293358	23.885888	-164.477579	815.083921	7.466697	6.801845	-38.880101	36.144732	-45.000000	40.411301	2867.424394	-1579.610569	-90.000000	-74.330208	1800.642023	232.480114	17.150045	12.976634	16.080966	38.530326	-38.913001	-45.000000	-45.000000	-2074.144454	71.132625	25.465181	-12.972963	1089.354751	11.198399	11.050740	-20.171919	
8.7300	-37.877061	-18.802632	24.504557	-160.079317	813.413071	7.609738	6.813426	-38.819347	36.407000	-45.000000	40.583856	2867.179807	-1579.736619	-90.000000	-74.178205	1800.561952	233.357643	16.994637	12.861214	16.114931	38.544209	-38.941369	-45.000000	-45.000000	-2074.374729	70.986645	25.509636	-12.810046	1089.255941	11.827776	11.217041	-20.067529	
8.7400	-37.671875	-19.312852	25.143690	-155.638987	811.660960	7.730782	6.805732	-38.749610	36.652272	-45.000000	40.735831	2866.937051	-1579.830366	-90.000000	-74.057401	1800.500114	234.308516	16.816108	12.723096	16.134312	38.554521	-38.945951	-45.000000	-45.000000	-2074.634118	70.841592	25.539915	-12.636983	1089.147946	12.566566	11.372236	-19.978830	
8.7500	-37.445072	-19.827026	25.808859	-151.170862	809.842802	7.828562	6.797472	-38.677877	36.884253	-45.000000	40.854686	2866.694496	-1579.895221	-90.000000	-73.964117	1800.451563	235.329889	16.621249	12.566388	16.139928	38.559525	-38.928253	-45.000000	-45.000000	-2074.911306	70.690105	25.559831	-12.471821	1089.027906	13.395114	11.519333	-19.904976	
8.7600	-37.189028	-20.369120	26.522599	-146.688663	807.974221	7.902715	6.842141	-38.618807	37.126597	-45.000000	40.895021	2866.441839	-1579.945259	-90.000000	-73.884620	1800.398421	236.399071	16.432460	12.405064	16.145797	38.566866	-38.885687	-45.000000	-45.000000	-2075.181903	70.518699	25.568238	-12.361590	1088.891123	14.295223	11.663171	-19.846608	
8.7700	-36.899569	-20.942322	27.290255	-142.206004	806.070766	7.953618	6.959087	-38.580576	37.383218	-45.000000	40.841392	2866.176954	-1579.989812	-90.000000	-73.810072	1800.334377	237.493456	16.258706	12.246075	16.156789	38.576339	-38.819777	-45.000000	-45.000000	-2075.435335	70.319753	25.568265	-12.324384	1088.735710	15.245951	11.808871	-19.802389	
8.7800	-36.572482	-21.559531	28.125086	-137.736237	804.147365	7.982259	7.172421	-38.571736	37.663772	-45.000000	40.665304	2865.891692	-1580.041041	-90.000000	-73.729212	1800.250380	238.583784	16.113409	12.099336	16.186464	38.594652	-38.732787	-45.000000	-45.000000	-2075.655816	70.084992	25.554446	-12.391174	1088.562664	16.227074	11.957727	-19.772532	
8.7900	-36.211105	-22.202315	29.009402	-133.292585	802.217911	7.990048	7.447965	-38.580970	37.951382	-45.000000	40.397613	2865.593062	-1580.097015	-90.000000	-73.644429	1800.157477	239.664845	15.979599	11.957416	16.222282	38.615443	-38.624386	-45.000000	-45.000000	-2075.858961	69.828477	25.525512	-12.538870	1088.374836	17.220953	12.105207	-19.753459	
8.8000	-35.816293	-22.858611	29.933505	-128.888138	800.294886	7.978739	7.772688	-38.605693	38.237279	-45.000000	40.047682	2865.287091	-1580.155388	-90.000000	-73.558444	1800.058608	240.737030	15.851996	11.817941	16.259573	38.634917	-38.494719	-45.000000	-45.000000	-2076.050517	69.550595	25.483665	-12.755936	1088.174960	18.217955	12.248994	-19.744281	
8.8100	-35.392003	-23.506804	30.875646	-124.535809	798.389001	7.950339	8.105185	-38.631148	38.505458	-45.000000	39.653587	2864.984486	-1580.210488	-90.000000	-73.476792	1799.962977	241.817174	15.710401	11.669291	16.279237	38.644615	-38.338082	-45.000000	-45.000000	-2076.253528	69.269273	25.430447	-13.001414	1087.966355	19.212298	12.383593	-19.742143	
8.8200	-34.942530	-24.137511	31.824815	-120.248420	796.509077	7.907143	8.434381	-38.654490	38.753109	-45.000000	39.228484	2864.685428	-1580.264205	-90.000000	-73.397388	1799.866314	242.917435	15.553679	11.510346	16.281920	38.645804	-38.158440	-45.000000	-45.000000	-2076.470603	68.984887	25.365955	-13.259048	1087.751295	20.203878	12.506586	-19.747282	
8.8300	-34.470310	-24.742460	32.769111	-116.038698	794.662032	7.851679	8.741204	-38.665761	38.976866	-45.000000	38.796777	2864.395074	-1580.321540	-90.000000	-73.314810	1799.766829	244.050357	15.372552	11.335752	16.256577	38.637045	-37.952268	-45.000000	-45.000000	-2076.715959	68.713798	25.287148	-13.500058	1087.527282	21.191633	12.615182	-19.757042	
8.8400	-33.977499	-25.321998	33.708439	-111.919887	792.853482	7.786950	9.042552	-38.674188	39.177817	-45.000000	38.346960	2864.112872	-1580.396354	-90.000000	-73.215019	1799.654116	245.211057	15.177998	11.152083	16.207619	38.620143	-37.723793	-45.000000	-45.000000	-2076.980108	68.450745	25.198354	-13.718078	1087.292777	22.171405	12.715426	-19.771177	
8.8500	-33.461642	-25.884049	34.650781	-107.905623	791.088163	7.716295	9.358412	-38.684506	39.363726	-45.000000	37.860844	2863.836280	-1580.508652	-90.000000	-73.078064	1799.516367	246.381068	14.974245	10.963160	16.130443	38.595931	-37.470532	-45.000000	-45.000000	-2077.260573	68.201328	25.094401	-13.911079	1087.047421	23.132246	12.810480	-19.787260	
8.8600	-32.925228	-26.430174	35.598379	-104.010037	789.370818	7.644064	9.706876	-38.706598	39.533778	-45.000000	37.318640	2863.562775	-1580.683633	-90.000000	-72.878993	1799.345082	247.529737	14.769284	10.775953	16.027455	38.564382	-37.195863	-45.000000	-45.000000	-2077.546285	67.961401	24.981207	-14.078885	1086.789903	24.059958	12.906243	-19.802720	
8.8700	-32.354727	-26.978820	36.577670	-100.247264	787.706292	7.574334	10.133561	-38.748683	39.690520	-45.000000	36.677722	2863.297358	-1580.946681	-90.000000	-72.593037	1799.134955	248.613616	14.548173	10.586375	15.859344	38.506783	-36.881693	-45.000000	-45.000000	-2077.850409	67.748144	24.843137	-14.215647	1086.514658	24.932040	13.001392	-19.809149	
8.8800	-31.759399	-27.522675	37.577878	-96.630692	786.099863	7.510320	10.626366	-38.814202	39.830589	-45.000000	35.940620	2863.040085	-1581.312287	-90.000000	-72.206284	1798.882342	249.589694	14.325689	10.404421	15.658357	38.434314	-36.541085	-45.000000	-45.000000	-2078.154289	67.548392	24.693711	-14.337341	1086.223198	25.737710	13.099494	-19.806258	
8.8900	-31.146359	-28.056549	38.588570	-93.172107	784.556476	7.451639	11.167095	-38.898543	39.955204	-45.000000	35.120211	2862.791323	-1581.773406	-90.000000	-71.726185	1798.589101	250.429718	14.099962	10.230723	15.439137	38.350923	-36.182464	-45.000000	-45.000000	-2078.452316	67.360005	24.532205	-14.455339	1085.925210	26.470987	13.195056	-19.794033	
